# xmcd CD database file generated by OrangeCD 6.4
#
# Track frame offsets:
#	150
#	27659
#	43155
#	58741
#	74108
#	106371
#	126213
#	144039
#	169404
#	196717
#	207643
#	210773
#	231441
#
# Disc length: 3417 seconds
#
# Revision: 0
# Processed by: cddbd v1.5.2PL0 Copyright (c) Steve Scherf et al.
# Submitted via: OrangeCD 6.4
#
DISCID=c90d570d
DTITLE=Jimi Hendrix - Studio Sessions Volume. 1
DYEAR=2008
DGENRE=Blues Rock
TTITLE0=Calling All Devil's Children
TTITLE1=Look Over Yonder (Mr. Bad Luck/Mr. Lost Soul)
TTITLE2=Look Over Yonder (Mr. Bad Luck/Mr. Lost Soul)
TTITLE3=New Rising Sun (aka MLK)
TTITLE4=Peace In Mississippi
TTITLE5=Peace In Mississippi (Take 15)
TTITLE6=JS28 Jam
TTITLE7=JS29 Jam
TTITLE8=JS30 Jam
TTITLE9=Everything's Gonna Be Alright
TTITLE10=Lover Man (Here He Comes) (Take 1)
TTITLE11=Lover Man
TTITLE12=Lover Man
EXTD=
EXTT0=
EXTT1=
EXTT2=
EXTT3=
EXTT4=
EXTT5=
EXTT6=
EXTT7=
EXTT8=
EXTT9=
EXTT10=
EXTT11=
EXTT12=
PLAYORDER=
